# xmcd
#
# Track frame offsets:
#	150
#	18346
#	36410
#	54437
#	72790
#	85140
#	99829
#	115067
#	131244
#	148188
#	163086
#	177092
#	193730
#	206606
#	220643
#	237168
#	254319
#	267753
#	283913
#	297049
#	310225
#	328339
#
# Disc length: 4572 seconds
#
# Revision: 2
# Processed by: cddbd v1.5.2PL0 Copyright (c) Steve Scherf et al.
# Submitted via: dBpowerAMP V4.0
#
DISCID=4a11da16
DTITLE=Various Artist - ERG Nu Country Traxx Vol. 180
DYEAR=2009
DGENRE=Country
TTITLE0=Rascal Flatts - Summer Nights
TTITLE1=Luke Bryan - Do I
TTITLE2=Brooks And Dunn - Indian Summer
TTITLE3=Martina McBride - I Just Call You Mine
TTITLE4=Rodney Atkins - 15 Minutes
TTITLE5=Aaron Lines - Sand
TTITLE6=Jason Aldean - Big Green Tractor
TTITLE7=Jimmy Wayne - I'll Be That
TTITLE8=Miranda Lambert - Dead Flowers
TTITLE9=Brad Johner - I Want It
TTITLE10=Dean Brody - Dirt Roads Scholar
TTITLE11=Trace Adkins - All I Ask For Anymore
TTITLE12=Holly Williams - Mama
TTITLE13=Jeff Griffith - Dip Me In Beer
TTITLE14=Cledus T. Judd - Waitin' On Obama
TTITLE15=One Flew South - Life
TTITLE16=Mac McAnally - You First
TTITLE17=Kate and Kacey - Dreaming Love
TTITLE18=Wynonna - I Hear You Knocking
TTITLE19=Steve Azar - Moo La Moo
TTITLE20=Richie McDonald - Six-Foot Teddybear
TTITLE21=Charlie Allen - Proof
EXTD=
EXTT0=
EXTT1=
EXTT2=
EXTT3=
EXTT4=
EXTT5=
EXTT6=
EXTT7=
EXTT8=
EXTT9=
EXTT10=
EXTT11=
EXTT12=
EXTT13=
EXTT14=
EXTT15=
EXTT16=
EXTT17=
EXTT18=
EXTT19=
EXTT20=
EXTT21=
PLAYORDER=
